<?xml version="1.0" standalone="no"?>
<!DOCTYPE svg PUBLIC "-//W3C//DTD SVG 20010904//EN"
 "http://www.w3.org/TR/2001/REC-SVG-20010904/DTD/svg10.dtd">
<svg version="1.0" xmlns="http://www.w3.org/2000/svg"
 width="700.000000pt" height="700.000000pt" viewBox="0 0 700.000000 700.000000"
 preserveAspectRatio="xMidYMid meet">
<metadata>
Created by potrace 1.14, written by Peter Selinger 2001-2017
</metadata>
<g transform="translate(0.000000,700.000000) scale(0.100000,-0.100000)"
fill="#000000" stroke="none">
<path d="M1342 6529 c-73 -37 -104 -106 -87 -196 6 -33 65 -95 481 -512 l474
-476 -427 -427 -428 -428 -471 471 c-361 361 -479 473 -508 483 -140 48 -270
-102 -202 -231 8 -16 224 -237 480 -493 l466 -465 -294 -295 c-319 -321 -322
-325 -304 -416 16 -78 104 -138 187 -128 43 5 75 27 157 110 l72 72 403 -402
c222 -221 429 -423 459 -448 226 -187 541 -318 830 -343 76 -6 234 -7 280 -1
14 2 50 6 80 10 30 4 102 19 160 33 l106 26 234 -234 c203 -202 245 -239 305
-269 67 -33 75 -35 175 -35 98 0 109 2 172 33 42 20 92 57 133 96 l65 64 22
-24 c35 -38 138 -118 188 -147 56 -32 179 -73 245 -83 182 -25 382 22 526 125
24 17 162 148 305 291 232 230 269 263 329 291 211 99 461 -6 533 -225 31 -92
25 -202 -16 -289 -27 -59 -62 -98 -285 -324 -301 -305 -305 -310 -346 -390
-87 -174 -106 -339 -61 -528 29 -120 154 -317 225 -355 43 -23 137 -20 171 6
61 45 89 113 74 179 -4 20 -31 63 -59 98 -73 89 -95 150 -95 263 0 83 3 97 34
160 29 60 67 103 294 332 145 145 279 291 302 325 81 122 124 276 119 425 -4
95 -9 121 -39 211 -137 404 -623 604 -1001 414 -97 -49 -143 -88 -397 -341
-141 -140 -277 -268 -303 -284 -119 -74 -294 -72 -410 5 -16 11 -49 38 -72 60
l-42 40 56 61 c79 85 109 137 127 216 27 117 3 244 -62 330 -15 19 -127 136
-250 259 -154 155 -221 229 -217 240 11 28 45 166 50 201 56 415 -19 772 -230
1096 -81 125 -135 183 -558 604 l-394 393 71 71 c87 86 103 109 111 163 6 45
-12 102 -43 136 -47 52 -144 66 -204 29 -18 -12 -157 -145 -308 -297 -151
-151 -278 -275 -281 -275 -4 0 -216 209 -472 465 -256 255 -478 470 -493 476
-54 21 -97 21 -142 -2z m1949 -1426 c429 -431 474 -483 551 -638 81 -162 119
-320 124 -510 8 -338 -109 -630 -351 -870 -236 -236 -508 -349 -840 -349 -270
1 -502 77 -715 236 -50 37 -598 574 -844 826 l-38 40 838 840 c462 462 844
841 849 841 6 1 198 -187 426 -416z m972 -2161 c147 -149 177 -183 177 -207 0
-24 -35 -64 -218 -247 -158 -159 -225 -220 -246 -224 -27 -4 -44 10 -213 178
l-184 184 69 47 c138 94 278 231 369 362 32 46 60 84 63 84 3 1 85 -79 183
-177z"/>
</g>
</svg>
