<?xml version="1.0" standalone="no"?>
<!DOCTYPE svg PUBLIC "-//W3C//DTD SVG 20010904//EN"
 "http://www.w3.org/TR/2001/REC-SVG-20010904/DTD/svg10.dtd">
<svg version="1.0" xmlns="http://www.w3.org/2000/svg"
 width="180.000000pt" height="180.000000pt" viewBox="0 0 180.000000 180.000000"
 preserveAspectRatio="xMidYMid meet">
<metadata>
Created by potrace 1.11, written by Peter Selinger 2001-2013
</metadata>
<g transform="translate(0.000000,180.000000) scale(0.100000,-0.100000)"
fill="#000000" stroke="none">
<path d="M620 1605 l195 -195 -86 0 c-52 0 -104 -6 -133 -16 -60 -21 -147
-100 -178 -162 -22 -46 -23 -54 -23 -332 0 -280 0 -286 24 -329 29 -55 106
-131 158 -157 35 -17 62 -19 318 -19 209 0 290 3 318 13 53 19 151 113 172
165 11 25 20 81 23 141 l5 98 193 -193 194 -194 0 688 0 687 -687 0 -688 0
195 -195z m334 -334 c65 -65 113 -120 107 -122 -16 -6 -30 -71 -31 -134 0 -98
14 -112 100 -100 l48 7 7 55 7 56 90 -89 90 -89 -7 -115 c-8 -134 -23 -169
-105 -243 -38 -35 -63 -48 -98 -54 -81 -14 -512 -10 -554 5 -52 18 -155 130
-165 179 -4 21 -8 151 -8 288 l0 250 27 46 c36 61 108 126 155 138 21 6 74 16
118 22 44 6 82 13 84 15 9 9 21 -1 135 -115z m177 -203 c6 -52 -4 -103 -20
-103 -19 0 -32 51 -24 97 7 50 39 54 44 6z"/>
<path d="M641 1142 c-23 -18 -25 -26 -25 -115 -1 -52 3 -99 7 -103 8 -8 126
-9 134 0 3 2 5 47 6 100 2 107 -5 123 -64 132 -25 4 -41 1 -58 -14z m69 -51
c15 -29 12 -94 -5 -117 -15 -19 -15 -19 -30 0 -26 34 -15 136 15 136 5 0 14
-9 20 -19z"/>
<path d="M787 783 c-9 -8 -9 -70 -1 -100 8 -30 71 -47 143 -40 73 8 91 26 91
94 l0 53 -113 0 c-63 0 -117 -3 -120 -7z m167 -39 c9 -3 16 -14 16 -24 0 -22
-19 -30 -70 -30 -21 0 -45 3 -54 6 -19 7 -21 40 -3 47 18 8 93 8 111 1z"/>
<path d="M261 1534 c-28 -35 -26 -69 4 -99 30 -31 84 -34 108 -7 41 46 3 132
-58 132 -24 0 -39 -7 -54 -26z m74 -49 c0 -13 -8 -21 -22 -23 -17 -3 -23 2
-23 16 0 10 3 22 7 26 13 13 38 1 38 -19z"/>
<path d="M278 374 c-73 -39 -25 -150 56 -130 27 7 56 51 56 86 0 27 -35 60
-62 60 -13 -1 -35 -7 -50 -16z m62 -59 c0 -20 -5 -25 -25 -25 -20 0 -25 5 -25
25 0 20 5 25 25 25 20 0 25 -5 25 -25z"/>
<path d="M1427 372 c-40 -44 -1 -132 58 -132 35 0 75 42 75 79 0 58 -95 96
-133 53z m78 -57 c0 -13 -8 -21 -22 -23 -17 -3 -23 2 -23 16 0 10 3 22 7 26
13 13 38 1 38 -19z"/>
</g>
</svg>
